<?xml version="1.0" encoding="UTF-8"?>
<svg width="66px" height="15px" viewBox="0 0 66 15" version="1.1" xmlns="http://www.w3.org/2000/svg" xmlns:xlink="http://www.w3.org/1999/xlink">
    <!-- Generator: sketchtool 51 (57462) - http://www.bohemiancoding.com/sketch -->
    <title>F5BBF519-D8AA-433F-A0E5-DF4980E6875D</title>
    <desc>Created with sketchtool.</desc>
    <defs></defs>
    <g id="Page-1" stroke="none" stroke-width="1" fill="none" fill-rule="evenodd">
        <g id="Tayara-Group-Navigation-Bar" transform="translate(-948.000000, -163.000000)" fill="#00bcd5">
            <g id="Default" transform="translate(627.000000, 158.000000)">
                <g id="Talents" transform="translate(321.000000, 5.000000)">
                    <path d="M25.7364938,12.6451071 C25.7230875,11.5104643 25.7169,9.88296429 25.7169,7.76260714 C25.7169,5.64225 25.7230875,4.01475 25.7364938,2.88010714 C25.7364938,2.70117857 25.745775,2.39475 25.7643375,1.95975 C25.7839313,1.56332143 25.7932125,1.25689286 25.7932125,1.03939286 C25.7932125,0.876535714 25.7148375,0.779035714 25.556025,0.747964286 C25.2724313,0.685821429 24.7609313,0.65475 24.021525,0.65475 C23.2635563,0.65475 22.7799,0.685821429 22.5715875,0.747964286 C22.4323688,0.786535714 22.3539938,0.891535714 22.3344,1.06189286 L22.3344,1.56332143 C22.3344,2.25546429 22.3405875,3.29046429 22.3539938,4.66939286 C22.3653375,6.04725 22.371525,7.07903571 22.371525,7.76260714 C22.371525,8.44617857 22.3653375,9.47689286 22.3539938,10.8568929 C22.3405875,12.2358214 22.3344,13.26975 22.3344,13.9618929 L22.3344,14.4633214 C22.3539938,14.6336786 22.4323688,14.7386786 22.5715875,14.77725 C22.7799,14.8393929 23.2635563,14.8704643 24.021525,14.8704643 C24.7609313,14.8704643 25.2724313,14.8393929 25.556025,14.77725 C25.7148375,14.7461786 25.7932125,14.64975 25.7932125,14.4858214 C25.7932125,14.2693929 25.7839313,13.9618929 25.7643375,13.5654643 C25.745775,13.1304643 25.7364938,12.8240357 25.7364938,12.6451071" id="Fill-38"></path>
                    <path d="M32.6299875,8.6535 C32.6299875,8.24635714 32.4907688,7.8885 32.2133625,7.57992857 C31.934925,7.27135714 31.6038938,7.11707143 31.2182063,7.11707143 C30.8201438,7.11707143 30.4922063,7.29171429 30.2333625,7.63885714 C29.99205,7.96135714 29.872425,8.3385 29.872425,8.77135714 C29.872425,8.94814286 29.9611125,9.03707143 30.1384875,9.03707143 C30.6056438,9.03707143 31.3316438,8.96207143 32.3175188,8.811 C32.5258313,8.77778571 32.6299875,8.72528571 32.6299875,8.6535 M35.9475188,9.25457143 C35.9475188,9.91671429 35.7423,10.2938571 35.3308313,10.386 C35.2617375,10.3988571 34.607925,10.4717143 33.3693938,10.6024286 C32.7052688,10.6785 31.7513625,10.7674286 30.507675,10.8692143 C30.2405813,10.8917143 30.1044563,11.2152857 30.2715188,11.4338571 C30.408675,11.6127857 30.5973938,11.7627857 30.8397375,11.8827857 C31.2058313,12.0670714 31.6224563,12.1581429 32.0906438,12.1581429 C32.64855,12.1581429 33.20955,12.0027857 33.7726125,11.6931429 C33.7818938,11.6888571 33.7901438,11.6835 33.799425,11.6770714 L34.2810188,11.361 C34.4274563,11.2645714 34.624425,11.2999286 34.7265188,11.4456429 C34.8461438,11.6149286 34.995675,11.8720714 35.1751125,12.2170714 C35.4875813,12.8213571 35.6433,13.206 35.6433,13.3688571 C35.6433,13.4149286 35.5968938,13.491 35.5009875,13.596 C34.7306438,14.4563571 33.5333625,14.8849286 31.910175,14.8849286 C30.4066125,14.8849286 29.1938625,14.4295714 28.2708938,13.5167143 C27.323175,12.591 26.8498313,11.3545714 26.8498313,9.80528571 C26.8498313,8.29564286 27.273675,7.05814286 28.1193,6.09385714 C28.9917375,5.09635714 30.1477688,4.59707143 31.5873938,4.59707143 C32.801175,4.59707143 33.8303625,5.05671429 34.6770188,5.97492857 C35.523675,6.89421429 35.9475188,7.98707143 35.9475188,9.25457143" id="Fill-40"></path>
                    <path d="M65.6702062,6.46189286 L64.4162062,7.76367857 C64.2450187,7.94153571 63.9727687,7.94796429 63.788175,7.78510714 C63.2550187,7.32117857 62.6723625,7.09510714 62.1990188,7.09510714 C61.8071438,7.09510714 61.6297687,7.25796429 61.6297687,7.50225 C61.6297687,7.76689286 61.8257062,7.88903571 62.1598312,8.03153571 L63.04155,8.37760714 C64.6286437,9.02903571 65.6877375,9.90546429 65.6877375,11.3711786 C65.6877375,12.8379643 64.6492687,14.8533214 61.6895812,14.8533214 C59.9488313,14.8533214 58.4236125,14.15475 57.5150813,12.9118929 C57.3717375,12.7158214 57.39855,12.4383214 57.5728313,12.2711786 L58.9155188,10.9865357 C59.102175,10.8086786 59.3898938,10.8204643 59.5652063,11.0111786 C60.1922063,11.6936786 60.8491125,12.14475 61.7081438,12.14475 C62.1392063,12.14475 62.5321125,12.0226071 62.5321125,11.6968929 C62.5321125,11.4526071 62.336175,11.3101071 62.00205,11.1676071 L61.082175,10.8011786 C59.5136438,10.14975 58.4555813,9.27439286 58.4555813,7.62439286 C58.4555813,5.60903571 60.0034875,4.38653571 62.1206437,4.38653571 C63.58605,4.38653571 64.7895187,4.87082143 65.6712375,5.78260714 C65.8517062,5.97010714 65.850675,6.27439286 65.6702062,6.46189286" id="Fill-42"></path>
                    <path d="M0.758896875,7.48885714 C0.807365625,7.77171429 2.31917813,7.59278571 2.38311563,7.58314286 L2.52233438,7.58314286 C2.88533438,7.58314286 3.06683438,7.74707143 3.06683438,8.07064286 C3.06683438,8.56028571 3.04827188,9.29635714 3.01320938,10.2745714 C2.97608438,11.2538571 2.95958438,11.9867143 2.95958438,12.4731429 C2.95958438,14.1092143 3.98670938,14.9235 6.04405313,14.9235 C7.16192813,14.9235 7.84874063,14.6631429 8.76655313,14.1370714 C8.76655313,14.1370714 9.07489688,13.9163571 9.11820938,13.8831429 C9.27186563,13.7642143 9.26464688,13.3377857 9.26464688,13.1267143 C9.26464688,12.9145714 9.28320938,12.5824286 9.25949063,12.1667143 C9.23577188,11.7135 9.25949063,11.6995714 9.25949063,11.4767143 C9.25949063,11.3149286 9.18420938,11.2324286 9.03570938,11.2324286 C8.90061563,11.2324286 8.66858438,11.2827857 8.33652188,11.3588571 C8.12717813,11.4081429 7.99724063,11.4220714 7.81986563,11.4220714 C7.25783438,11.4220714 7.04849063,11.3277857 6.85667813,11.0117143 C6.71952188,10.7738571 6.65352188,10.3452857 6.65352188,9.72278571 C6.65352188,9.55457143 6.64939688,9.291 6.64217813,8.93742857 L6.64217813,8.14885714 C6.64217813,7.82421429 6.69580313,7.6635 6.80202188,7.6635 L7.60330313,7.57778571 C7.74355313,7.57778571 7.98280313,7.58207143 8.31795938,7.59171429 C8.65208438,7.6035 8.72530313,7.60885714 8.86761563,7.60885714 C9.07283438,7.60885714 9.13470938,7.52528571 9.17699063,7.37635714 C9.24195938,7.15028571 9.21514688,7.00671429 9.21514688,6.74742857 C9.21514688,6.40778571 9.25949063,6.05314286 9.25949063,5.87742857 C9.25949063,5.706 9.23577188,5.54207143 9.21514688,5.20028571 C9.19452188,4.85635714 9.19452188,5.02778571 9.19452188,4.85635714 C9.19452188,4.43742857 8.97177188,4.4685 8.85420938,4.44814286 C8.60052188,4.40421429 8.55720938,4.42885714 8.04983438,4.41814286 C7.54555313,4.40742857 7.22070938,4.33135714 6.91958438,4.27992857 C6.71539688,4.24564286 6.61020938,4.09778571 6.61020938,3.73564286 C6.61020938,3.4335 6.63289688,2.98242857 6.67930313,2.3835 C6.72570938,1.7835 6.74942813,1.33778571 6.74942813,1.04207143 C6.74942813,0.929571429 6.66074063,0.863142857 6.48336563,0.8535 C5.72230313,0.814928571 5.32320938,0.820285714 4.93752188,0.791357143 C4.77870938,0.7785 4.41261563,0.762428571 3.99495938,0.7335 C3.62989688,0.707785714 3.36589688,0.687428571 3.17305313,0.687428571 C3.01733438,0.687428571 2.93792813,1.116 2.93792813,1.97314286 C2.93792813,1.92921429 2.95133438,2.03957143 2.98020938,2.99207143 C2.99464688,3.60064286 3.02352188,3.64028571 2.98020938,3.92207143 C2.95958438,4.0635 2.77911563,4.36457143 2.52336563,4.37314286 C2.06755313,4.38707143 0.916678125,4.42992857 0.814584375,4.64528571 C0.814584375,4.64528571 0.469115625,5.81314286 0.758896875,7.48885714" id="Fill-44"></path>
                    <path d="M47.7673969,7.48885714 C47.8168969,7.77171429 49.3276781,7.59278571 49.3916156,7.58314286 L49.5318656,7.58314286 C49.8938344,7.58314286 50.0753344,7.74707143 50.0753344,8.07064286 C50.0753344,8.56028571 50.0567719,9.29635714 50.0217094,10.2745714 C49.9856156,11.2538571 49.9680844,11.9867143 49.9680844,12.4731429 C49.9680844,14.1092143 50.9962406,14.9235 53.0525531,14.9235 C54.1704281,14.9235 54.8572406,14.6631429 55.7750531,14.1370714 C55.7750531,14.1370714 56.0844281,13.9163571 56.1267094,13.8831429 C56.2803656,13.7642143 56.2741781,13.3377857 56.2741781,13.1267143 C56.2741781,12.9145714 56.2927406,12.5824286 56.2690219,12.1667143 C56.2442719,11.7135 56.2679906,11.6995714 56.2679906,11.4767143 C56.2679906,11.3149286 56.1937406,11.2324286 56.0442094,11.2324286 C55.9091156,11.2324286 55.6770844,11.2827857 55.3450219,11.3588571 C55.1367094,11.4081429 55.0067719,11.4220714 54.8283656,11.4220714 C54.2663344,11.4220714 54.0569906,11.3277857 53.8651781,11.0117143 C53.7280219,10.7738571 53.6620219,10.3452857 53.6620219,9.72278571 C53.6620219,9.55457143 53.6578969,9.291 53.6506781,8.93742857 L53.6506781,8.14885714 C53.6506781,7.82421429 53.7043031,7.6635 53.8105219,7.6635 L54.6118031,7.57778571 C54.7530844,7.57778571 54.9913031,7.58207143 55.3264594,7.59171429 C55.6616156,7.6035 55.7338031,7.60885714 55.8761156,7.60885714 C56.0823656,7.60885714 56.1432094,7.52528571 56.1854906,7.37635714 C56.2504594,7.15028571 56.2236469,7.00671429 56.2236469,6.74742857 C56.2236469,6.40778571 56.2679906,6.05314286 56.2679906,5.87742857 C56.2679906,5.706 56.2453031,5.54207143 56.2236469,5.20028571 C56.2040531,4.85635714 56.2040531,5.02778571 56.2040531,4.85635714 C56.2040531,4.43742857 55.9813031,4.4685 55.8627094,4.44814286 C55.6090219,4.40421429 55.5657094,4.42885714 55.0593656,4.41814286 C54.5540531,4.40742857 54.2292094,4.33135714 53.9280844,4.27992857 C53.7249281,4.24564286 53.6197406,4.09778571 53.6197406,3.73564286 C53.6197406,3.4335 53.6413969,2.98242857 53.6888344,2.3835 C53.7352406,1.7835 53.7579281,1.33778571 53.7579281,1.04207143 C53.7579281,0.929571429 53.6692406,0.863142857 53.4918656,0.8535 C52.7318344,0.814928571 52.3317094,0.820285714 51.9460219,0.791357143 C51.7872094,0.7785 51.4221469,0.762428571 51.0044906,0.7335 C50.6383969,0.707785714 50.3743969,0.687428571 50.1815531,0.687428571 C50.0258344,0.687428571 49.9464281,1.116 49.9464281,1.97314286 C49.9464281,1.92921429 49.9608656,2.03957143 49.9897406,2.99207143 C50.0031469,3.60064286 50.0320219,3.64028571 49.9897406,3.92207143 C49.9691156,4.0635 49.7876156,4.36457143 49.5328969,4.37314286 C49.0760531,4.38707143 47.9262094,4.42992857 47.8230844,4.64528571 C47.8230844,4.64528571 47.4786469,5.81314286 47.7673969,7.48885714" id="Fill-46"></path>
                    <path d="M17.2749844,9.75996429 C17.2749844,9.19960714 17.1058594,8.73567857 16.7665781,8.37032143 C16.4272969,8.00389286 15.9838594,7.82067857 15.4383281,7.82067857 C14.8917656,7.82067857 14.4524531,8.00175 14.1162656,8.36603571 C13.7790469,8.72817857 13.6099219,9.19210714 13.6099219,9.75996429 C13.6099219,10.2935357 13.7883281,10.7510357 14.1451406,11.1335357 C14.4998906,11.5149643 14.9309531,11.70675 15.4383281,11.70675 C15.9776719,11.70675 16.4180156,11.5235357 16.7624531,11.15925 C17.1037969,10.7928214 17.2749844,10.32675 17.2749844,9.75996429 M20.3398594,9.69996429 C20.3398594,10.2088929 20.3677031,10.9621071 20.4244219,11.9638929 C20.4821719,12.9678214 20.5110469,13.7188929 20.5110469,14.21925 C20.5110469,14.48175 20.3996719,14.7785357 20.1769219,14.79675 C19.3911094,14.8556786 18.4908281,14.88675 17.4740156,14.88675 C17.3543906,14.88675 17.3492344,14.5256786 17.2327031,14.1635357 C17.1419531,13.8849643 17.0749219,13.9171071 17.0749219,13.9171071 C17.0749219,13.9171071 16.9676719,13.89675 16.8841406,13.9824643 C16.1746406,14.72925 15.4125469,14.87175 14.6009531,14.87175 C13.3634531,14.87175 12.3394219,14.3638929 11.5267969,13.3481786 C10.7595469,12.3999643 10.3759219,11.2653214 10.3759219,9.94639286 C10.3759219,8.42603571 10.7719219,7.19817857 11.5649531,6.27032143 C12.3899531,5.30817857 13.5191719,4.84103571 14.9526094,4.82496429 C15.7590469,4.81532143 16.2942656,4.84746429 17.3079844,5.25567857 C17.3079844,5.25567857 17.5297031,5.36496429 17.5750781,5.17746429 C17.6513906,4.85817857 17.6256094,4.82282143 17.7256406,4.81103571 C17.9587031,4.78210714 18.1123594,4.77996429 18.9569531,4.78960714 C18.9569531,4.78960714 20.3573906,4.81103571 20.5296094,4.85817857 C20.6286094,4.88496429 20.6719219,4.95032143 20.6719219,5.01460714 C20.6719219,5.04032143 20.6626406,5.11103571 20.6440781,5.22460714 C20.4409219,6.41496429 20.3398594,8.36925 20.3398594,9.69996429" id="Fill-48"></path>
                    <path d="M46.5840375,12.5912143 C46.57785,11.7415714 46.573725,11.103 46.573725,10.6765714 L46.573725,7.53621429 C46.573725,6.72835714 46.2736313,6.09835714 45.674475,5.64621429 C45.1371938,5.25192857 44.4668813,5.05478571 43.6656,5.05478571 C43.4841,5.05478571 42.0331313,5.23371429 41.4195375,5.46085714 C40.8781313,5.66121429 40.5543188,5.65478571 40.5543188,5.65478571 C40.5543188,5.65478571 40.5357563,5.65478571 40.5089438,5.65157143 C40.443975,5.64407143 40.3253813,5.60978571 40.278975,5.46835714 C40.2067875,5.25192857 40.1418188,5.16407143 40.0778813,5.12978571 C40.0283813,5.10085714 39.9788813,5.10621429 39.9293813,5.10621429 C39.8974125,5.10621429 39.1023188,5.10621429 38.4155063,5.11157143 C38.4155063,5.11157143 37.2605063,5.06442857 36.921225,5.10407143 C36.8284125,5.13621429 36.7820063,5.20264286 36.7820063,5.29907143 C36.7820063,5.33871429 36.7871625,5.388 36.8016,5.44692857 C37.0666313,6.44121429 37.1996625,8.22942857 37.1996625,9.76585714 C37.1996625,10.2887143 37.1955375,11.073 37.1914125,12.1155 C37.1841938,13.1590714 37.1811,13.9412143 37.1811,14.4640714 C37.1811,14.6558571 37.2831938,14.7619286 37.4884125,14.7887143 C37.5636938,14.7972857 37.647225,14.8037143 37.7348813,14.8112143 C38.051475,14.8347857 38.4381938,14.8465714 38.8981313,14.8465714 C39.511725,14.8465714 39.965475,14.8337143 40.2614438,14.8069286 C40.4666625,14.7887143 40.5687563,14.6997857 40.5687563,14.5444286 C40.5687563,14.3612143 40.5563813,14.0805 40.5316313,13.7055 C40.5068813,13.3294286 40.4945063,13.0476429 40.4945063,12.8569286 C40.4945063,12.5740714 40.4903813,12.1476429 40.4821313,11.5755 C40.4718188,11.0033571 40.4666625,10.5769286 40.4666625,10.2951429 C40.4666625,9.798 40.5739125,9.13478571 40.7275688,8.91621429 C40.7337563,8.90764286 40.7389125,8.89907143 40.7451,8.89157143 C40.83585,8.7855 40.9400063,8.61621429 41.0967563,8.47907143 C41.1318188,8.45014286 41.169975,8.42121429 41.2101938,8.39335714 C41.2236,8.38371429 41.235975,8.37407143 41.2514438,8.36657143 C41.5628813,8.16085714 41.8371938,8.058 42.07335,8.058 C42.3981938,8.058 42.6529125,8.14264286 42.8385375,8.31085714 C43.07985,8.53157143 43.2015375,8.89692857 43.2015375,9.40585714 C43.2015375,9.64907143 43.207725,10.0122857 43.2190688,10.4944286 C43.232475,10.9765714 43.2386625,11.3397857 43.2386625,11.5819286 C43.2386625,11.898 43.2293813,12.3672857 43.2108188,12.9908571 C43.191225,13.6144286 43.1819438,14.0794286 43.1819438,14.388 C43.1819438,14.6183571 43.2768188,14.7522857 43.4665688,14.7919286 C43.6552875,14.8315714 44.1492563,14.8508571 44.94435,14.8508571 C45.6899438,14.8508571 46.1509125,14.838 46.3282875,14.8112143 C46.5046313,14.7855 46.5933188,14.6837143 46.5933188,14.5069286 C46.5933188,14.0794286 46.590225,13.4408571 46.5840375,12.5912143" id="Fill-50"></path>
                </g>
            </g>
        </g>
    </g>
</svg>